<?xml version="1.0"?><svg version="1.2" baseProfile="tiny-ps" viewBox="0 0 300 300" xmlns="http://www.w3.org/2000/svg" xmlns:xlink="http://www.w3.org/1999/xlink"><title>logo</title><g><g fill="#d8d8d8" transform="matrix(.1 0 0 -.1 0 300)"><path d="M0 1500V0h3000v3000H0V1500z"/></g><g fill="#b5b5b5" transform="matrix(.1 0 0 -.1 0 300)"><path d="M0 1500V0h3000v3000H0V1500zm1573 840 26-20 11-35 12-35-12-35-12-35-31-14c-18-7-60-15-95-19l-63-5 16 12 17 12-6 55c-3 30-5 61-6 69l-1 15-14-19-15-20v42l31 26 31 26h85l26-20zm358-215 30-16 9-25c6-14 10-38 10-53v-27l-30-29-29-28-68-7-68-8-60-26-60-26h-38c-21 0-58 5-82 11l-45 11-23-6c-13-3-41-17-62-32l-39-26 13 16 13 16h-13l-14 1 28 24 27 24 36 7 35 6 59-11 59-12 43 12 43 11 42 43 43 42v82l26 20 27 21h29c16 0 42-7 59-15zm-881-264c-18-10-104-22-96-13 4 3 25 9 49 13 60 9 64 9 47 0zm210-345 155-156 32-15 31-15 81-3 81-2-18-13-17-13-25 4c-14 3-52 10-85 16l-59 11-169 167c-93 93-172 175-176 183l-8 15 6 60 6 60 5-72 5-72 155-155zm113 264-5-21 17-45 17-46 32-19 31-19h136l28-14c15-8 42-31 59-50l31-36 11-41c6-22 9-48 7-57l-5-17-1 23c-2 37-30 95-64 130l-31 32-36 10c-19 5-59 10-88 10h-54l-28 17-28 16-21 37-21 38v29c0 25 7 43 16 43 1 0 0-9-3-20zm694-125 23-26v-68l-10-6-10-6 1 8c1 4 1 13 0 19l-1 11-41 6-41 5-16 15c-9 8-25 17-35 20l-18 7-9-23-9-22v28l-1 27 33 21 32 20 40-5 40-5 22-26zm-554-62c-7-2-19-2-25 0l-13 5h50l-12-5zm390-927-18-24-3 9-4 10-16-13-17-12 24 27c14 15 31 27 38 27h14l-18-24zm227 15v-9l-65-4-65-3v25h130v-9zm131-23 23-32-15 10c-15 9-20 11-44 13l-15 1v40h29l22-32zm127-70-2-103-3 80-4 80-9-15-10-15v75h30l-2-102z"/></g><g fill="#8e8f8f" transform="matrix(.1 0 0 -.1 0 300)"><path d="M0 1500V0h3000v3000H0V1500zm1545 856 35-15 20-33 20-33v-52l-23-34-23-34-29-6c-17-4-52-7-78-8l-48-1-27-14c-15-8-86-74-158-148l-131-133-2-80-2-80 153-155c85-85 162-161 171-169 18-15 124-40 170-41h27l35 33 36 32 5 36 6 36-20 46-21 46-33 21-33 20h-124l-28 11c-64 24-113 95-113 164v36l20 39 20 38 32 24 33 23 113-3 114-2 34 16 35 17 26 33 25 34-6 15-5 15 9 24c5 13 19 34 31 45l23 21h88l29-29 29-29v-81l-23-27-23-27-70-7-69-8-64-27-64-27-107 7-107 7-33-30-34-29-4-61-4-62 40-40 40-40h141l36-17 36-17 29-44c32-49 45-97 37-140l-5-27 79 82 79 82v89l31 26 31 26h78l30-27 30-28 6-32 6-31-34-38-35-37-52 1c-71 1-89-7-160-77l-62-59-30 3-30 4-35-34-35-35h-27c-37 0-154 25-178 38-10 6-53 45-94 86-41 42-79 76-85 76h-10l10-8c17-13 99-102 94-102-2 0-58 55-124 122-66 68-97 102-70 78 94-85 100-85 18 1l-83 87v139l-18 16-19 17-46-9c-26-4-54-15-64-22l-16-14 5 15c7 21 45 38 103 46l50 6 144 141 143 142 14 32 14 32v77l16 23c16 22 66 50 92 51 7 0 28-6 47-14zM1440 680v-20h-70V550h-9c-13 0-21 27-21 71v39h-60v40h160v-20zm200 5c16-8 36-25 44-37l16-22v-39c0-21-5-47-10-58l-11-19h-19c-10 0-22-4-25-10l-6-10-37 1-37 2 37 6 38 6 20 17 20 18v34c0 49-8 65-42 82l-29 15-30-6-29-7-15-21-15-21v-63l22-28 22-28-25 17c-14 9-28 13-32 10-3-3-10 9-15 27l-9 34 8 29c21 73 93 105 159 71zm160-43 5-51 40 49c38 46 70 69 82 57 2-3-14-26-38-52l-42-46 23-32c13-18 35-47 48-64l24-33h-21c-11 0-21 3-21 8-1 4-19 27-41 52l-39 45-10-15c-5-8-10-32-10-52v-38l-17 1-18 1 14 5 13 5-10 7-11 6-7 87-7 87 7 16 6 17 13-4 12-5 5-51zm330 38v-20h-111l3-27 3-28 48-3 47-3v-29h-101l3-32 3-33 53-3 52-3v-29h-145l14 9 13 8-11 21-11 21v171h140v-20zm160-60c29-44 56-80 61-80h9v160h30V470h-17l-18 1-55 79-55 79-3-79-3-80h-27l-4 108c-4 116-3 122 16 122h13l53-80zM737 684c-3-3-12-4-19-1l-13 5 19 1c11 1 17-2 13-5zm165-19c-2-14-6-25-8-25s-4 11-4 25v25h17l-5-25zm223 9 16-17-12-8-12-7-14 14-14 14h-24c-13 0-27-5-30-11l-7-10-14 5-14 5v-22l-7 6-6 7 18 20 18 20h86l16-16zm-57-74 27-8-21-1c-11-1-29 6-40 15-10 8-13 12-6 9 8-4 26-11 40-15zm62-20 15-10h-10c-5 0-17 5-25 10l-15 10h10c6 0 17-5 25-10z"/></g><g fill="#535353" transform="matrix(.1 0 0 -.1 0 300)"><path d="M0 1500V0h3000v3000H0V1500zm1587 826 33-36v-75l-19-29c-11-16-30-35-43-42l-23-13-42 6c-23 3-52 3-65 0l-24-6-139-141c-77-77-142-146-146-153-3-6-9-43-13-81l-7-69 168-169 168-169 20-4c11-2 48-9 83-16l63-12 24 11 25 12 20 32 20 33-1 35v35l-17 34c-9 19-30 44-45 55l-28 21-85 6-84 5-28 21c-15 11-37 35-49 53l-23 33v114l23 34c12 18 38 44 57 57l35 24 106-7 107-7 30 16c16 8 41 29 56 46l26 32v24c0 14 7 39 16 55l15 31 36 14 35 15 34-11 34-11 20-26 20-26v-89l-28-27-28-28-50 4-50 5-59-27c-32-14-77-30-100-34l-41-8-72 10-71 10-29-12-29-12-21-38-22-39v-67l20-32c10-17 29-37 42-44l23-13 72-1 72-1 42-29 42-30 24-44 23-44v-91l56 54c62 61 84 96 84 135 0 14 6 38 14 54l15 27 26 12c14 7 43 12 64 12h38l26-24 26-24 7-26c8-33-1-67-23-95l-18-22-76-7-76-8-132-124-132-124-18-42-19-41-44-22c-54-26-65-26-105-1l-32 19-16 32-17 31 6 34 7 33-15 33-14 33-148 147-149 147-28 11c-16 5-40 10-54 10h-25l-34 34-34 34v74l28 28 29 29 39 6c21 3 50 8 63 11l24 5 135 132c73 73 140 144 148 159l14 27v72l15 30 16 30 32 20 32 20 40-5 40-5 32-35zM1105 690c26-10 43-35 31-47-3-3-21 2-39 12l-33 18-22-12c-39-21-24-44 38-61 25-7 51-17 58-22l12-10v-67l-22-15-22-16h-73l-27 21c-31 24-33 39-7 39h19l6-15 5-15h33c18 0 40 5 48 10l15 9-11 18-11 18-43 12c-23 7-48 18-56 24l-14 11v67l22 15c26 18 56 20 93 6zm335-10v-20h-60V470h-40v190h-70v40h170v-20zm224-10 35-31 6-29 7-30-12-35-11-35-26-20-26-20h-99l-28 28-29 29-6 36-7 35 17 36 18 37 26 14 26 14 37 1h37l35-30zm136-22 1-53 47 53 47 52h18c25 0 21-9-23-59l-39-45 32-43c18-24 38-52 46-63l13-20h-40l-40 49-39 50-12-12-11-11v-76h-40v230h40v-52zm338 30 3-18h-111v-60h90v-30h-90v-70h110v-30h-150v231l72-3 73-3 3-17zm157-60 55-83v165h40V470h-36l-55 78-54 77-3-77-3-78h-39v230h40l55-82zM792 597c21-50 40-100 44-109l6-18h-40l-6 25-6 25H680l-10-25-10-25h-15c-22 0-24-7 56 198l9 22h45l37-93zm138-17V470h-40v220h40V580zm634 80c-12-5-29-19-38-32l-16-22v-57l25-24 24-25h62l24 25 25 24v60l-22 25c-27 29-55 38-84 26zm-849-54c-9-21-14-40-12-43 3-2 18-3 35-1l29 3-17 40-18 40-17-39z"/></g><g fill="#202120" transform="matrix(.1 0 0 -.1 0 300)"><path d="M0 1500V0h3000v3000H0V1500zm1750 1045c106-33 214-91 298-158l65-51 59-74c56-71 117-177 133-232 3-14-11 10-33 53-130 254-343 416-621 472l-84 17-116-4-116-4 25 8 25 7 140-3 140-4 85-27zm-189-191 31-15 19-45 20-44-20-44-19-44-25-17-25-16-60-4-60-4-29-14-29-15-124-133-125-132-6-61-6-61 13-25c7-14 81-93 166-177l153-151 25-5c14-3 49-10 77-16l53-11 24 9c30 12 63 54 71 91l6 29-20 45-20 45-33 21-33 20h-136l-27 14c-37 19-68 55-87 98-18 43-19 69-5 119l10 36 36 36 37 36 35 12 35 12 69-13 68-13 42 12 41 13 28 28 28 28 7 42 7 42 24 29 24 28 33 6 33 7 37-16 37-15 15-36 15-36-7-34-6-33-28-27-29-28-68-7-68-7-45-20c-25-11-62-23-84-27l-38-7-68 12-68 12-34-19-33-20-19-37-18-38 6-34 7-35 24-27 23-28 90-5 90-6 35-27c20-15 46-41 58-59l23-32 4-58 4-58 60 62c63 67 78 93 78 137v28l21 26 20 27 39 11 39 12 31-13c17-7 40-24 50-38l20-25v-79l-34-34-34-34h-125l-135-132-134-133-19-37c-10-20-30-46-45-57l-27-21h-83l-22 16c-12 8-29 28-37 44l-15 29v102l-14 27c-8 15-81 93-163 175l-150 147h-75l-33 16-33 16-17 40-16 41 6 26c7 31 22 51 55 74l24 17h67l27 14c15 8 89 77 165 154l139 139 7 59 7 59 14 21c7 12 25 28 39 37l26 16 33 1h33l30-16zm766-406-5-13-1 19c-1 11 2 17 5 13 3-3 4-12 1-19zM801 585c26-60 45-113 42-117-2-5-11-8-18-8h-14l-16 30-16 30h-99v-13c0-7-6-20-12-29l-13-16-17 7-17 6 38 95c20 52 40 103 44 113l7 18 22-3 23-3 46-110zm129 0V470h-40v230h40V585zm194 94c14-11 26-25 26-30 0-12-34-11-47 2l-11 11-28-4-29-3v-38l43-13c24-7 52-20 63-30l19-17v-19c0-11-4-28-10-38l-10-18-35-12-35-12-35 12-35 12-11 20-11 21 13 8 14 8 20-19 21-20h20c11 0 29 7 40 15l19 15-19 15c-11 8-35 18-53 21l-33 6-20 25c-26 33-25 49 5 78l24 25h68l27-21zm324-1 3-18h-71V470h-40v190h-70v41l87-3 88-3 3-17zm220-6 31-29 7-27 6-26-6-33-6-33-31-30-30-29h-99l-32 33-33 32v112l33 29 32 29h98l30-28zm132-24v-53l46 53 46 52h50l-34-41c-18-22-37-47-43-54l-9-14 47-60 47-61h-28l-27 1-34 45-34 45-11-4-11-4-3-41-3-42h-39v230h40v-52zm340 32v-20h-110v-50h90v-40h-90v-60h110v-40h-150v230h150v-20zm155-57 50-77 3 77 3 77h39V470h-39l-48 70c-26 38-51 70-56 70h-7l6-70 7-70h-53v230h45l50-77zM717 600l-15-35 25-3c34-5 36 0 20 39l-15 34-15-35zm826 45-21-15-7-29-6-30 15-29 15-30 27-6 27-7 28 11 27 12 12 27 11 28-7 27-6 26-21 15c-27 19-67 19-94 0z"/></g><g fill="#101010" transform="matrix(.1 0 0 -.1 0 300)"><path d="M0 1500V0h3000v3000H0V1500zm1720 1060 75-21 105-51 105-52 101-100 101-101 41-70c22-38 54-109 71-157l30-87 10-98 10-98-9-77c-9-75-27-158-35-158-2 0-2 25-1 56l4 55-29-6-29-7-8 23-9 22-6-16c-4-10-11-17-17-17h-11l6 10 6 10h-11c-6 0-13-7-17-16l-6-16-8 15-9 15-18-5-18-4-13 15c-21 25-27 19-30-30l-2-46-16-25c-9-13-29-31-44-39l-28-14h-114l-124-122-124-123-29-51-28-51-37-17-37-18-33 6-33 7-31 35-31 35v54c0 29-5 66-11 82l-10 28-147 143c-81 79-157 147-170 153-13 5-38 9-55 9h-33l-22 16c-12 8-29 28-37 44l-15 29v73l34 34 34 34h73l37 19 37 19 133 134 132 135v84l-10-6c-5-3-10-13-10-22 0-17-47-103-56-103-3 0-2 6 2 13l8 12-17-14c-9-7-17-10-17-6 0 5-8 2-17-7-10-8-30-19-45-26l-28-11-15 5c-8 4-15 10-15 16v9l11-7 11-6-11 21c-7 11-17 21-24 21h-12l15-10 15-10-14-9-15-10-19 22-19 22-24-3-24-3 7 17 6 17-16-6-16-6 5 13 5 13-16 7c-9 3-21 4-26 0l-9-5-1 13c-1 7-1 17 0 21l1 8-9-5-9-6-5 12-5 13-10-13-9-13-14 17-14 18 13-8 12-7v29c0 4-6 7-12 7h-13l1 18c3 34-13 20-93-82-56-70-55-55 1 24 80 112 191 201 329 265l82 38 70 15c110 26 114 26 235 22l115-4 75-21zm597-1102-5-13-1 19c-1 11 2 17 5 13 3-3 4-12 1-19zM1138 673c17-23 15-30-8-36l-19-5-12 15-12 14-26-3-26-3v-38l49-12 50-13 13-18c7-10 13-28 13-40v-22l-19-23-19-24h-104l-25 30-26 29 21 9 20 9 21-21c22-22 38-25 65-15l16 6v36l-45 11-45 11-20 20-20 20v23c0 32 20 56 55 66l30 8 30-9c17-4 36-16 43-25zm495 23c18-7 40-23 51-34l18-21 5-44 5-44-16-31-16-32-30-15-29-15h-33c-42 1-74 19-99 56l-19 29v77l17 29 17 28 30 15c39 19 58 20 99 2zM804 587c25-63 46-117 46-120 0-4-11-7-24-7h-24l-11 30-10 30h-97l-11-30-11-30h-21c-12 0-21 4-21 9 0 10 40 116 69 184l20 47h48l47-113zm126-8V459l-22 3-23 3-3 118-3 117h51V579zm520 101v-20h-70V460h-40v200h-70v40h180v-20zm350-30v-51l43 50 42 50h28c15 1 27-1 27-3 0-3-18-26-40-51l-40-47 7-11c4-7 24-35 45-63s38-54 38-57c0-4-11-7-24-7h-24l-38 50-38 49-13-11-13-10v-79l-22 3-23 3-3 118-3 117h51v-50zm340 30v-20h-110v-49l48-3 47-3v-40l-47-3-48-3v-49h110v-51l-77 3-78 3-3 118-3 117h161v-20zm158-57 52-77v154h40V460h-35l-50 71-50 70-5-68-5-68-22-3-23-3v241h45l53-77zm-727 1521-24-17-75-7-75-8-141-141-141-141-3-72-3-73 163-163 164-162 74-18c41-9 85-16 97-14l22 3 27 32 26 31-4 54-5 53-32 32-31 32-84 5-84 6-42 28-42 27-19 42-19 42v80l19 41 19 41 35 28 36 27-11 18-12 18-15-5-16-5 19 12 18 12-11 7-12 8 10 25 10 26 48 17c70 24 115 49 131 74 17 25 14 26-17 5zm170-117c-6-16-16-37-22-48l-11-21 21 12 21 11 6 24c3 13 4 30 1 37l-5 13-11-28zm194-88-30-19h-96l-57-27-57-28-122 2-122 2-31-30-30-31v-98l28-31 29-32 85-7 85-7 37-22 36-23 25-43 25-42 2-47 2-48 62 64 61 63 8 53 7 53 21 20 21 19-20 1c-10 1-25 0-33-1s-18 4-23 12l-10 13 5-20 4-21h-34l1 16 1 15h-61v20l1 20-21-2-22-2-5 21-6 21 12-12c6-6 17-11 25-11h13l-16 17-17 16 16 9c9 5 16 15 16 22 0 12 19 26 40 30 3 1 10 4 15 7 6 4 27 9 47 13l37 7 31 25c17 15 35 35 41 45 12 23 12 23-26-2zm-170-194c7-31 12-41 19-34 2 2-3 18-11 34l-14 30 6-30zM1540 640l-20-20v-71l26-25 25-26 27 7c34 8 52 23 63 52l8 22-10 31-11 30-18 10c-10 6-30 10-44 10h-26l-20-20zm-819-33c-6-16-11-33-11-38v-9h51l-7 23c-3 12-10 29-15 37l-8 15-10-28z"/></g></g></svg>